<mxfile host="app.diagrams.net" modified="2023-06-06T18:25:13.487Z" agent="Mozilla/5.0 (Windows NT 10.0; Win64; x64) AppleWebKit/537.36 (KHTML, like Gecko) Chrome/113.0.0.0 Safari/537.36" version="21.2.1" etag="-8LqHmt0g4pFN9yh0_le" type="github">
  <diagram name="Страница 1" id="wlceICPTkVgg3_bEzui2">
    <mxGraphModel>
      <root>
        <mxCell id="0" />
        <mxCell id="1" parent="0" />
      </root>
    </mxGraphModel>
  </diagram>
</mxfile>
